<mxfile host="Electron" modified="2024-06-28T17:00:22.971Z" agent="Mozilla/5.0 (Windows NT 10.0; Win64; x64) AppleWebKit/537.36 (KHTML, like Gecko) draw.io/24.0.4 Chrome/120.0.6099.109 Electron/28.1.0 Safari/537.36" etag="um84yqWD_BIROvQRRctl" version="24.0.4" type="device">
  <diagram name="Page-1" id="2nfQGYOKYZsUlrUQFB5c">
    <mxGraphModel dx="989" dy="659" grid="1" gridSize="10" guides="1" tooltips="1" connect="1" arrows="1" fold="1" page="1" pageScale="1" pageWidth="1100" pageHeight="850" math="0" shadow="0">
      <root>
        <mxCell id="0" />
        <mxCell id="1" parent="0" />
        <mxCell id="olx5KI7JplJ73ocT-9a--1" value="&lt;h1&gt;&lt;span style=&quot;font-weight: normal;&quot; class=&quot;title&quot;&gt;&lt;font style=&quot;font-size: 18px;&quot;&gt;KubernetesCRDModelGen&lt;/font&gt;&lt;/span&gt;&lt;/h1&gt;" style="rounded=0;whiteSpace=wrap;html=1;" vertex="1" parent="1">
          <mxGeometry x="90" y="70" width="240" height="50" as="geometry" />
        </mxCell>
        <UserObject label="&lt;h2 class=&quot;package-title&quot;&gt;&lt;font style=&quot;font-weight: normal;&quot; color=&quot;#000000&quot;&gt;KubernetesCRDModelGen.&lt;wbr&gt;SourceGenerator&amp;nbsp;&lt;/font&gt;&lt;/h2&gt;" id="olx5KI7JplJ73ocT-9a--2">
          <mxCell style="rounded=0;whiteSpace=wrap;html=1;" vertex="1" parent="1">
            <mxGeometry x="90" y="140" width="380" height="50" as="geometry" />
          </mxCell>
        </UserObject>
        <UserObject label="&lt;h2 class=&quot;package-title&quot;&gt;&lt;font style=&quot;font-weight: normal;&quot; color=&quot;#000000&quot;&gt;KubernetesCRDModelGen.&lt;wbr&gt;Models.*&lt;/font&gt;&lt;/h2&gt;" id="olx5KI7JplJ73ocT-9a--3">
          <mxCell style="rounded=0;whiteSpace=wrap;html=1;" vertex="1" parent="1">
            <mxGeometry x="90" y="210" width="380" height="50" as="geometry" />
          </mxCell>
        </UserObject>
      </root>
    </mxGraphModel>
  </diagram>
</mxfile>
